<?xml version="1.0" encoding="UTF-8" standalone="no"?><!DOCTYPE svg PUBLIC "-//W3C//DTD SVG 1.1//EN" "http://www.w3.org/Graphics/SVG/1.1/DTD/svg11.dtd"><svg width="100%" height="100%" viewBox="0 0 100 100" version="1.1" xmlns="http://www.w3.org/2000/svg" xmlns:xlink="http://www.w3.org/1999/xlink" xml:space="preserve" xmlns:serif="http://www.serif.com/" style="fill-rule:evenodd;clip-rule:evenodd;stroke-linejoin:round;stroke-miterlimit:2;"><g id="radiobttom_active"><path id="radio_on" d="M50,25c-13.715,0 -25,11.285 -25,25c0,13.715 11.285,25 25,25c13.715,0 25,-11.285 25,-25c0.001,-0.081 0.001,-0.162 0.001,-0.243c0,-13.582 -11.176,-24.758 -24.758,-24.758c-0.081,0 -0.162,0 -0.243,0.001Zm0,-25c-27.429,0 -50,22.571 -50,50c0,27.429 22.571,50 50,50c27.429,0 50,-22.571 50,-50c-0.08,-27.399 -22.601,-49.92 -50,-50Zm0,90c-21.943,0 -40,-18.057 -40,-40c0,-21.943 18.057,-40 40,-40c21.943,0 40,18.057 40,40c-0.064,21.919 -18.081,39.936 -40,40Z" style="fill:#29b0c6;"/></g></svg>