<?xml version="1.0" encoding="UTF-8" standalone="no"?>
<!DOCTYPE svg PUBLIC "-//W3C//DTD SVG 1.1//EN" "http://www.w3.org/Graphics/SVG/1.1/DTD/svg11.dtd">
<svg width="100%" height="100%" viewBox="0 0 40 40" version="1.1" xmlns="http://www.w3.org/2000/svg" xmlns:xlink="http://www.w3.org/1999/xlink" xml:space="preserve" xmlns:serif="http://www.serif.com/" style="fill-rule:evenodd;clip-rule:evenodd;stroke-linejoin:round;stroke-miterlimit:2;">
    <g transform="matrix(1,0,0,1,5,0)">
        <g id="ComboBox">
            <g id="Group">
                <g id="ic-arrow-drop-down" transform="matrix(1,0,0,1,0,16)">
                    <g id="Group_8822" transform="matrix(1,0,0,1,4,7)">
                        <path id="Path_18879" d="M8,9.365L0.319,2.233L1.681,0.767L8,6.635L14.319,0.767L15.68,2.233L8,9.365Z" style="fill:rgb(41,176,198);"/>
                    </g>
                    <path id="Rectangle_4407" d="M0,0L24,0L24,24L0,24L0,0Z" style="fill:none;"/>
                </g>
                <g transform="matrix(-1,-7.65714e-16,7.65714e-16,-1,24,24)">
                    <g id="ic-arrow-drop-up">
                        <g id="ic_arrow_drop_up">
                            <g id="Group_88221" serif:id="Group_8822" transform="matrix(1,0,0,1,4,7)">
                                <path id="Path_188791" serif:id="Path_18879" d="M8,9.365L0.319,2.233L1.681,0.767L8,6.635L14.319,0.767L15.68,2.233L8,9.365Z" style="fill:rgb(41,176,198);"/>
                            </g>
                            <path id="Rectangle_44071" serif:id="Rectangle_4407" d="M0,0L24,0L24,24L0,24L0,0Z" style="fill:none;"/>
                        </g>
                    </g>
                </g>
            </g>
        </g>
    </g>
</svg>
