<?xml version="1.0" encoding="UTF-8" standalone="no"?>
<!DOCTYPE svg PUBLIC "-//W3C//DTD SVG 1.1//EN" "http://www.w3.org/Graphics/SVG/1.1/DTD/svg11.dtd">
<svg width="24px" height="40px" viewBox="0 0 24 40" version="1.1" xmlns="http://www.w3.org/2000/svg" xmlns:xlink="http://www.w3.org/1999/xlink" xml:space="preserve" xmlns:serif="http://www.serif.com/" style="fill-rule:evenodd;clip-rule:evenodd;stroke-linejoin:round;stroke-miterlimit:2;">
    <g transform="matrix(1,0,0,1,1,13)">
        <g id="Privacy-Active">
            <g id="Group">
                <path id="Path_18869" d="M20.025,10.116L17.771,0.009L11,1.156L4.229,0L1.975,10.116L0,10.116L0,12.116L22,12.116L22,10.116L20.025,10.116ZM5.771,2.294L11,3.183L16.229,2.283L17.976,10.116L4.024,10.116L5.771,2.294Z" style="fill:rgb(73,231,249);fill-rule:nonzero;"/>
                <path id="Path_18870" d="M12,16.116L10,16.116L10,14.116L1,14.116L1,17.854C1.081,20.273 3.08,22.183 5.5,22.154C7.77,22.068 9.652,20.366 9.964,18.116L12.036,18.116C12.349,20.366 14.23,22.067 16.5,22.152C18.92,22.181 20.919,20.271 21,17.852L21,14.116L12,14.116L12,16.116ZM8,17.854C7.909,19.168 6.817,20.187 5.5,20.187C4.183,20.187 3.091,19.168 3,17.854L3,16.116L8,16.116L8,17.854ZM14,16.116L19,16.116L19,17.854C18.909,19.168 17.817,20.187 16.5,20.187C15.183,20.187 14.091,19.168 14,17.854L14,16.116Z" style="fill:rgb(73,231,249);fill-rule:nonzero;"/>
            </g>
        </g>
    </g>
</svg>
