<?xml version="1.0" encoding="UTF-8" standalone="no"?>
<!DOCTYPE svg PUBLIC "-//W3C//DTD SVG 1.1//EN" "http://www.w3.org/Graphics/SVG/1.1/DTD/svg11.dtd">
<svg width="24px" height="40px" viewBox="0 0 24 40" version="1.1" xmlns="http://www.w3.org/2000/svg" xmlns:xlink="http://www.w3.org/1999/xlink" xml:space="preserve" xmlns:serif="http://www.serif.com/" style="fill-rule:evenodd;clip-rule:evenodd;stroke-linejoin:round;stroke-miterlimit:2;">
    <g transform="matrix(1,0,0,1,-1,11)">
        <g id="Send">
            <g id="ic-send">
                <g id="Group_8811" transform="matrix(1,0,0,1,1,1)">
                    <path id="Path_18865" d="M0.352,9.1L7.562,13.606L9.014,12.154L4.914,9.59L19.714,4.283L14.407,19.083L11.842,14.983L10.391,16.434L14.9,23.648L23.025,0.975L0.352,9.1Z" style="fill:rgb(73,231,249);"/>
                    <g transform="matrix(0.707107,-0.707107,0.707107,0.707107,6.16682,11.927)">
                        <g id="Group_8810">
                            <path id="Rectangle_4394" d="M-0.176,3.176L7.824,3.176L7.824,5.176L-0.176,5.176L-0.176,3.176Z" style="fill:rgb(73,231,249);"/>
                        </g>
                    </g>
                </g>
                <path id="Rectangle_4395" d="M0,0L26,0L26,26L0,26L0,0Z" style="fill:none;"/>
            </g>
        </g>
    </g>
</svg>
