<?xml version="1.0" encoding="UTF-8" standalone="no"?>
<!DOCTYPE svg PUBLIC "-//W3C//DTD SVG 1.1//EN" "http://www.w3.org/Graphics/SVG/1.1/DTD/svg11.dtd">
<svg width="100%" height="100%" viewBox="0 0 24 30" version="1.1" xmlns="http://www.w3.org/2000/svg" xmlns:xlink="http://www.w3.org/1999/xlink" xml:space="preserve" xmlns:serif="http://www.serif.com/" style="fill-rule:evenodd;clip-rule:evenodd;stroke-linejoin:round;stroke-miterlimit:2;">
    <g transform="matrix(1,0,0,1,1,7)">
        <g id="Master-Active">
            <g id="Group-2">
                <path id="Path_18873" d="M20.407,15.351C20.796,14.269 20.993,13.128 20.99,11.979C20.967,7.598 18.114,3.735 13.934,2.423C13.659,1.015 12.425,-0 10.99,-0C9.556,-0 8.322,1.015 8.046,2.423C5.438,3.228 3.271,5.064 2.049,7.505C0.827,9.946 0.655,12.78 1.573,15.351C0.537,15.909 -0.076,17.023 0.008,18.198C0.091,19.372 0.855,20.388 1.96,20.794C3.065,21.2 4.306,20.92 5.129,20.079C8.625,22.616 13.356,22.616 16.851,20.079C17.674,20.926 18.917,21.21 20.026,20.805C21.135,20.399 21.902,19.38 21.984,18.202C22.066,17.025 21.449,15.909 20.407,15.353L20.407,15.351ZM10.99,1.979C11.543,1.979 11.99,2.427 11.99,2.979C11.99,3.531 11.543,3.979 10.99,3.979C10.438,3.979 9.99,3.531 9.99,2.979C9.99,2.427 10.438,1.979 10.99,1.979ZM2.99,18.979C2.438,18.979 1.99,18.531 1.99,17.979C1.99,17.427 2.438,16.979 2.99,16.979C3.543,16.979 3.99,17.427 3.99,17.979C3.99,18.531 3.543,18.979 2.99,18.979ZM10.99,19.979C9.162,19.977 7.389,19.348 5.968,18.196C5.968,18.123 5.99,18.053 5.99,17.979C5.99,16.563 4.998,15.34 3.612,15.046C2.758,13.011 2.785,10.713 3.688,8.699C4.59,6.685 6.288,5.136 8.375,4.42C8.895,5.38 9.899,5.978 10.99,5.978C12.081,5.978 13.085,5.38 13.604,4.42C16.816,5.549 18.972,8.575 18.99,11.979C18.989,13.033 18.778,14.075 18.368,15.046C16.983,15.34 15.991,16.563 15.99,17.979C15.99,18.053 16.007,18.123 16.012,18.196C14.592,19.348 12.819,19.978 10.99,19.979ZM18.99,18.979C18.438,18.979 17.99,18.531 17.99,17.979C17.99,17.427 18.438,16.979 18.99,16.979C19.543,16.979 19.99,17.427 19.99,17.979C19.99,18.531 19.543,18.979 18.99,18.979Z" style="fill:rgb(73,231,249);fill-rule:nonzero;"/>
                <path id="Path_18874" d="M15.99,15.979L15.99,7.628L10.99,11.691L5.99,7.628L5.99,15.979L7.99,15.979L7.99,11.83L10.99,14.268L13.99,11.831L13.99,15.979L15.99,15.979Z" style="fill:rgb(73,231,249);"/>
            </g>
        </g>
    </g>
</svg>
