<?xml version="1.0" encoding="UTF-8" standalone="no"?>
<!DOCTYPE svg PUBLIC "-//W3C//DTD SVG 1.1//EN" "http://www.w3.org/Graphics/SVG/1.1/DTD/svg11.dtd">
<svg width="100%" height="100%" viewBox="0 0 24 40" version="1.1" xmlns="http://www.w3.org/2000/svg" xmlns:xlink="http://www.w3.org/1999/xlink" xml:space="preserve" xmlns:serif="http://www.serif.com/" style="fill-rule:evenodd;clip-rule:evenodd;stroke-linejoin:round;stroke-miterlimit:2;">
    <g transform="matrix(1,0,0,1,1,11)">
        <g id="Dashboard">
            <g id="Group">
                <g id="Group_8812">
                    <path id="Path_18866" d="M10,8L0,8L0,0L10,0L10,8ZM2,6L8,6L8,2L2,2L2,6Z" style="fill:rgb(73,231,249);fill-rule:nonzero;"/>
                </g>
                <g id="Group_8813" transform="matrix(1,0,0,1,12,0)">
                    <path id="Path_18867" d="M10,22L0,22L0,0L10,0L10,22ZM2,20L8,20L8,2L2,2L2,20Z" style="fill:rgb(73,231,249);fill-rule:nonzero;"/>
                </g>
                <g id="Group_8814" transform="matrix(1,0,0,1,0,10)">
                    <path id="Path_18868" d="M10,12L0,12L0,0L10,0L10,12ZM2,10L8,10L8,2L2,2L2,10Z" style="fill:rgb(73,231,249);fill-rule:nonzero;"/>
                </g>
            </g>
        </g>
    </g>
</svg>
