<?xml version="1.0" encoding="UTF-8" standalone="no"?>
<!DOCTYPE svg PUBLIC "-//W3C//DTD SVG 1.1//EN" "http://www.w3.org/Graphics/SVG/1.1/DTD/svg11.dtd">
<svg width="100%" height="100%" viewBox="0 0 24 31" version="1.1" xmlns="http://www.w3.org/2000/svg" xmlns:xlink="http://www.w3.org/1999/xlink" xml:space="preserve" xmlns:serif="http://www.serif.com/" style="fill-rule:evenodd;clip-rule:evenodd;stroke-linejoin:round;stroke-miterlimit:2;">
    <path d="M21.7,22.6L18.7,21L21.4,20.5C21.9,20.5 22.2,20 21.9,19.4C21.9,18.9 21.4,18.6 20.8,18.9L16.5,20L13.5,18.4L16.5,16.8L20.8,17.9L21.1,17.9C21.4,17.9 21.9,17.6 21.9,17.4C21.9,16.9 21.6,16.6 21.4,16.3L18.7,15.8L21.7,14.2C22.2,13.9 22.2,13.4 22,13.1C21.7,12.8 21.2,12.6 20.9,12.8L17.9,14.4L18.7,12C18.7,11.5 18.4,11.2 18.2,10.9C17.7,10.9 17.1,11.2 17.1,11.4L16,15.3L13,16.9L13,13.6L16.3,10.6C16.6,10.3 16.6,9.8 16.3,9.5C16,9.2 15.5,9.2 14.9,9.5L13.1,11.5L13.1,8.3C13.1,7.8 12.8,7.5 12.3,7.5C11.8,7.5 11.5,7.8 11.5,8.3L11.5,11.5L9.3,9.4C9,9.1 8.5,9.1 7.9,9.4C7.6,9.7 7.6,10.2 7.9,10.5L11.2,13.5L11.2,16.8L8.2,15.2L7.1,11.1C7.1,10.6 6.6,10.3 6,10.6C5.5,10.6 5.2,11.1 5.5,11.7L6.3,14.1L3.3,12.5C2.8,12.2 2.2,12.5 2.2,12.8C1.9,13.1 2.2,13.6 2.5,13.9L5.5,15.5L2.8,16C2.3,16 2,16.5 2.3,17.1C2.2,17.2 2.8,17.5 3,17.5L3.3,17.5L7.6,16.4L10.6,18L7.6,19.6L3.3,18.5C2.8,18.5 2.2,18.8 2.2,19C2.2,19.5 2.5,19.8 2.7,20.1L5.4,20.6L2.4,22.2C1.9,22.5 1.9,23 2.1,23.3C2.4,23.6 2.6,23.8 2.9,23.8L3.4,23.8L6.1,22.2L5.3,24.9C5.3,25.4 5.6,25.7 5.8,26L6.1,26C6.4,26 6.9,25.7 6.9,25.5L8,21.4L11,19.8L11,23.1L7.7,26.1C7.4,26.4 7.4,26.9 7.7,27.2C8,27.5 8.5,27.5 9.1,27.2L11,25.3L11,28.6C11,29.1 11.3,29.4 11.8,29.4C12.3,29.4 12.6,29.1 12.6,28.6L12.6,25.3L14.5,27.2C15,27.5 15,27.5 15.2,27.5C15.5,27.5 15.7,27.5 15.7,27.2C16,26.9 16,26.4 15.7,26.1L12.4,23.1L12.4,19.6L15.4,21.2L16.5,25.3C16.5,25.6 17,25.8 17.3,25.8L17.6,25.8C18.1,25.8 18.4,25.3 18.1,24.7L18.1,22.3L21.1,23.9L21.6,23.9C21.9,23.9 22.1,23.6 22.4,23.4C22.6,23.5 22.3,22.9 21.7,22.6Z" style="fill:rgb(73,231,249);fill-rule:nonzero;"/>
</svg>
