<?xml version="1.0" encoding="UTF-8" standalone="no"?>
<!DOCTYPE svg PUBLIC "-//W3C//DTD SVG 1.1//EN" "http://www.w3.org/Graphics/SVG/1.1/DTD/svg11.dtd">
<svg width="24px" height="40px" viewBox="0 0 24 40" version="1.1" xmlns="http://www.w3.org/2000/svg" xmlns:xlink="http://www.w3.org/1999/xlink" xml:space="preserve" xmlns:serif="http://www.serif.com/" style="fill-rule:evenodd;clip-rule:evenodd;stroke-linejoin:round;stroke-miterlimit:2;">
    <g transform="matrix(1,0,0,1,-1,11)">
        <g id="Receive-off">
            <g id="ic-receive-on">
                <path id="Rectangle_4413" d="M0,0L26,0L26,26L0,26L0,0Z" style="fill:none;"/>
                <g id="Group_8987" transform="matrix(1,0,0,1,2,2)">
                    <g id="Group_8986">
                        <path id="Path_18953" d="M18.178,10.734L16.822,9.265L12,13.716L12,0L10,0L10,13.716L5.178,9.266L3.822,10.734L11,17.361L18.178,10.734Z" style="fill:rgb(73,231,249);"/>
                        <path id="Path_18954" d="M20,15L20,20L2,20L2,15L0,15L0,22L22,22L22,15L20,15Z" style="fill:rgb(73,231,249);"/>
                    </g>
                </g>
            </g>
        </g>
    </g>
</svg>
