<?xml version="1.0" encoding="UTF-8" standalone="no"?>
<!DOCTYPE svg PUBLIC "-//W3C//DTD SVG 1.1//EN" "http://www.w3.org/Graphics/SVG/1.1/DTD/svg11.dtd">
<svg width="100%" height="100%" viewBox="0 0 24 40" version="1.1" xmlns="http://www.w3.org/2000/svg" xmlns:xlink="http://www.w3.org/1999/xlink" xml:space="preserve" xmlns:serif="http://www.serif.com/" style="fill-rule:evenodd;clip-rule:evenodd;stroke-linejoin:round;stroke-miterlimit:2;">
    <g transform="matrix(1,0,0,1,1,13)">
        <g id="Artboard">
            <g id="ic_settings-active">
                <g id="Group_8818">
                    <g id="Group_8816">
                        <path id="Path_18871" d="M13.9,22L8.1,22L7.787,18.864L7.72,18.837L5.281,20.837L1.167,16.725L3.167,14.285L3.139,14.219L0,13.9L0,8.1L3.135,7.786L3.163,7.72L1.163,5.28L5.276,1.168L7.715,3.168L7.782,3.141L8.1,0L13.9,0L14.213,3.136L14.28,3.163L16.719,1.163L20.828,5.27L18.828,7.71L18.856,7.776L22,8.1L22,13.9L18.865,14.214L18.837,14.28L20.837,16.72L16.728,20.827L14.289,18.827L14.222,18.854L13.9,22ZM9.9,20L12.1,20L12.361,17.39L12.987,17.19C13.329,17.08 13.661,16.942 13.979,16.776L14.562,16.476L16.595,18.14L18.143,16.591L16.479,14.556L16.779,13.972C16.945,13.654 17.083,13.323 17.193,12.982L17.393,12.357L20,12.1L20,9.9L17.39,9.639L17.19,9.014C17.08,8.673 16.942,8.342 16.776,8.024L16.476,7.44L18.138,5.41L16.59,3.861L14.557,5.525L13.974,5.225C13.656,5.059 13.324,4.921 12.982,4.811L12.356,4.611L12.1,2L9.9,2L9.639,4.61L9.013,4.81C8.671,4.92 8.339,5.058 8.021,5.224L7.438,5.524L5.41,3.861L3.862,5.41L5.526,7.445L5.226,8.029C5.06,8.347 4.922,8.678 4.812,9.019L4.612,9.644L2,9.9L2,12.1L4.61,12.361L4.81,12.986C4.92,13.327 5.058,13.658 5.224,13.976L5.524,14.56L3.862,16.59L5.41,18.139L7.443,16.475L8.026,16.775C8.344,16.941 8.676,17.079 9.018,17.189L9.644,17.389L9.9,20Z" style="fill:rgb(73,231,249);fill-rule:nonzero;"/>
                    </g>
                    <g id="Group_8817" transform="matrix(1,0,0,1,7,7)">
                        <path id="Path_18872" d="M4,8C1.791,8 0,6.209 0,4C0,1.791 1.791,0 4,0C6.209,0 8,1.791 8,4C8,5.061 7.579,6.078 6.828,6.828C6.078,7.579 5.061,8 4,8ZM4,2C2.895,2 2,2.895 2,4C2,5.105 2.895,6 4,6C5.105,6 6,5.105 6,4C6,2.895 5.105,2 4,2Z" style="fill:rgb(73,231,249);fill-rule:nonzero;"/>
                    </g>
                </g>
            </g>
        </g>
    </g>
</svg>
