<?xml version="1.0" encoding="UTF-8" standalone="no"?>
<!DOCTYPE svg PUBLIC "-//W3C//DTD SVG 1.1//EN" "http://www.w3.org/Graphics/SVG/1.1/DTD/svg11.dtd">
<svg width="100%" height="100%" viewBox="0 0 24 24" version="1.1" xmlns="http://www.w3.org/2000/svg" xmlns:xlink="http://www.w3.org/1999/xlink" xml:space="preserve" xmlns:serif="http://www.serif.com/" style="fill-rule:evenodd;clip-rule:evenodd;stroke-linejoin:round;stroke-miterlimit:2;">
    <g transform="matrix(1,0,0,1,-2,-2)">
        <g id="radiobttom_active">
            <path id="radio_on" d="M14,8C10.708,8 8,10.708 8,14C8,17.292 10.708,20 14,20C17.292,20 20,17.292 20,14C20,13.981 20,13.961 20,13.942C20,10.682 17.318,8 14.058,8C14.039,8 14.019,8 14,8ZM14,2C7.417,2 2,7.417 2,14C2,20.583 7.417,26 14,26C20.583,26 26,20.583 26,14C25.981,7.424 20.576,2.019 14,2ZM14,23.6C8.734,23.6 4.4,19.266 4.4,14C4.4,8.734 8.734,4.4 14,4.4C19.266,4.4 23.6,8.734 23.6,14C23.585,19.261 19.261,23.585 14,23.6Z" style="fill:rgb(73,231,249);"/>
        </g>
    </g>
</svg>
