<?xml version="1.0" encoding="UTF-8" standalone="no"?>
<!DOCTYPE svg PUBLIC "-//W3C//DTD SVG 1.1//EN" "http://www.w3.org/Graphics/SVG/1.1/DTD/svg11.dtd">
<svg width="100%" height="100%" viewBox="0 0 24 24" version="1.1" xmlns="http://www.w3.org/2000/svg" xmlns:xlink="http://www.w3.org/1999/xlink" xml:space="preserve" xmlns:serif="http://www.serif.com/" style="fill-rule:evenodd;clip-rule:evenodd;stroke-linejoin:round;stroke-miterlimit:2;">
    <g transform="matrix(1,0,0,1,2,2)">
        <g id="Artboard">
            <g id="ic-update-liliac">
                <path id="Rectangle_4642" d="M0,0L20,0L20,20L0,20L0,0Z" style="fill:none;"/>
                <path id="Path_18962" d="M13,8.5L18,8.5L18,3.5L16,3.5L16,4.715C13.566,1.949 9.557,1.203 6.291,2.909C3.024,4.615 1.346,8.331 2.226,11.91C3.105,15.488 6.315,18.003 10,18C12.123,18.006 14.16,17.162 15.657,15.657L14.243,14.243C12.466,16.024 9.766,16.506 7.482,15.452C5.198,14.397 3.814,12.03 4.016,9.522C4.218,7.014 5.963,4.899 8.387,4.224C10.81,3.549 13.398,4.458 14.867,6.5L13,6.5L13,8.5Z" style="fill:rgb(73,231,249);fill-rule:nonzero;"/>
            </g>
        </g>
    </g>
</svg>
